<svg width="777" height="408" viewBox="0 0 777 408" fill="none" xmlns="http://www.w3.org/2000/svg">
<g clip-path="url(#clip0)">
<path d="M775.35 297.398C771.28 323.268 758.67 348.378 737.86 364.268C717.38 379.918 691.14 385.478 665.81 390.258C635.43 395.998 604.967 401.244 574.42 405.998C570.09 406.688 565.757 407.354 561.42 407.998H383.5C383.32 407.758 383.13 407.508 382.95 407.258C382.66 406.838 382.37 406.418 382.09 405.998C381.93 405.758 381.77 405.508 381.61 405.258H493.21C496.377 405.255 499.413 403.996 501.653 401.758C503.894 399.52 505.155 396.484 505.16 393.318V244.358C505.88 242.098 506.55 239.828 507.16 237.528C510.006 226.818 511.857 215.868 512.69 204.818C513.29 197.118 513.47 189.418 513.34 181.708C512.97 160.518 510.2 139.328 507.19 118.288C506.97 116.738 506.74 115.178 506.52 113.628C504.4 99.0077 502.47 83.0978 509.84 70.2878C518.27 55.6278 536.98 49.5177 553.83 51.0177C584.14 53.7277 609.67 76.9378 622.94 104.328C636.2 131.708 639.17 162.848 640.38 193.248C641.02 209.368 640.95 226.208 638.7 242.378C646.3 224.998 653.906 207.618 661.52 190.238C665.58 180.968 669.85 171.398 677.37 164.618C693.09 150.428 719.09 153.288 735.88 166.208C752.66 179.138 761.86 199.568 767.98 219.838C775.56 244.908 779.43 271.528 775.35 297.398Z" fill="#F2F2F2"/>
<path d="M708.298 156.886C719.29 176.354 724.333 198.678 724.213 220.955C724.043 243.042 719.157 264.839 709.881 284.885C701.492 302.985 689.804 319.364 675.415 333.183C661.214 346.971 644.364 357.735 625.883 364.824C604.439 372.861 581.247 375.065 558.673 371.21C555.536 370.671 552.424 370.018 549.334 369.25C547.459 368.788 546.66 371.681 548.536 372.143C572.027 377.966 596.661 377.257 619.778 370.094C639.032 363.9 656.798 353.793 671.961 340.408C687.312 326.986 700.008 310.802 709.387 292.696C719.65 272.872 725.637 251.115 726.962 228.832C728.272 206.221 724.482 183.206 714.703 162.695C713.518 160.209 712.246 157.768 710.889 155.371C710.681 155.042 710.353 154.807 709.975 154.715C709.597 154.622 709.198 154.681 708.862 154.877C708.526 155.073 708.279 155.393 708.174 155.767C708.069 156.142 708.113 156.543 708.298 156.886H708.298Z" fill="white"/>
<path d="M549.088 50.6221C561.277 73.0892 570.775 96.9144 577.386 121.605C590.621 171.056 592.614 222.843 583.218 273.165C578.528 298.307 570.879 322.805 560.43 346.149C550.011 369.296 535.01 393.685 509.388 401.79C506.496 402.7 503.532 403.363 500.528 403.77C498.624 404.032 499.434 406.923 501.325 406.663C527.83 403.025 546.247 381.006 557.798 358.56C569.749 335.335 578.259 310.114 583.918 284.651C595.134 233.843 594.73 181.159 582.738 130.529C576.78 105.307 567.876 80.8737 556.208 57.7325C554.743 54.8345 553.233 51.9596 551.679 49.1079C550.756 47.4114 548.165 48.9239 549.088 50.6221V50.6221Z" fill="white"/>
<path d="M423.64 46.2578H244.04C240.395 46.2625 236.9 47.7127 234.323 50.2903C231.745 52.8679 230.295 56.3625 230.29 60.0078V149.998H257.93C259.952 149.992 261.941 150.503 263.71 151.481C265.48 152.459 266.97 153.873 268.04 155.588L277.62 170.838L286.78 185.408L288.5 188.148L298.98 204.818L299.1 205.008H437.39V60.0078C437.385 56.3625 435.935 52.8679 433.358 50.2903C430.78 47.7127 427.285 46.2625 423.64 46.2578V46.2578Z" fill="#CCCCCC"/>
<path d="M352.45 73.7676H263.46C261.101 73.7676 258.838 74.7047 257.17 76.3729C255.502 78.041 254.565 80.3035 254.565 82.6626C254.565 85.0217 255.502 87.2842 257.17 88.9523C258.838 90.6204 261.101 91.5576 263.46 91.5576H352.45C354.809 91.5576 357.072 90.6204 358.74 88.9523C360.408 87.2842 361.345 85.0217 361.345 82.6626C361.345 80.3035 360.408 78.041 358.74 76.3729C357.072 74.7047 354.809 73.7676 352.45 73.7676Z" fill="white"/>
<path d="M401.8 117.449H264.27C261.695 117.449 259.225 118.472 257.404 120.293C255.583 122.114 254.56 124.584 254.56 127.159C254.56 129.734 255.583 132.204 257.404 134.025C259.225 135.846 261.695 136.869 264.27 136.869H401.8C404.375 136.869 406.845 135.846 408.666 134.025C410.487 132.204 411.51 129.734 411.51 127.159C411.51 124.584 410.487 122.114 408.666 120.293C406.845 118.472 404.375 117.449 401.8 117.449V117.449Z" fill="white"/>
<path d="M410.58 157.018C409.799 155.348 408.558 153.936 407.003 152.946C405.448 151.956 403.643 151.429 401.8 151.428H264.27C264.06 151.428 263.86 151.438 263.65 151.448C265.444 152.428 266.956 153.854 268.04 155.588L277.62 170.838H401.8C403.433 170.838 405.04 170.426 406.471 169.64C407.902 168.854 409.112 167.719 409.988 166.341C410.863 164.962 411.377 163.385 411.48 161.755C411.584 160.125 411.274 158.496 410.58 157.018V157.018Z" fill="white"/>
<path d="M411.41 193.808C411.094 191.483 409.946 189.351 408.179 187.807C406.413 186.263 404.146 185.411 401.8 185.408H286.78L288.5 188.148L298.98 204.818H401.8C403.82 204.822 405.791 204.189 407.43 203.008C408.689 202.111 409.715 200.926 410.423 199.552C411.131 198.178 411.5 196.654 411.5 195.108C411.501 194.673 411.471 194.239 411.41 193.808V193.808Z" fill="white"/>
<path d="M521.19 123.758L507.19 118.288L437.39 91.0485L353.88 58.4585C350.481 57.1393 346.697 57.2217 343.359 58.6876C340.02 60.1535 337.399 62.8832 336.07 66.2785L333.15 73.7685L326.2 91.5585L316.1 117.448L308.52 136.868L302.84 151.428L295.26 170.838L289.57 185.408L289.41 185.828L288.5 188.148L298.98 204.818L299.1 205.008H493.21C494.992 205.007 496.751 205.405 498.359 206.173C499.967 206.942 501.382 208.061 502.5 209.448L503.32 207.368L513.34 181.708L529 141.578C530.322 138.179 530.242 134.395 528.778 131.054C527.314 127.714 524.585 125.09 521.19 123.758V123.758Z" fill="#00BFA6"/>
<path d="M444.87 123.499L437.39 120.579L361.97 91.1488C359.771 90.2977 357.324 90.351 355.164 91.2971C353.004 92.2432 351.306 94.0052 350.44 96.1988C349.588 98.3992 349.641 100.848 350.59 103.008C351.538 105.169 353.303 106.866 355.5 107.729L380.41 117.449L411.22 129.469L437.39 139.689L438.4 140.079C440.597 140.932 443.044 140.878 445.202 139.93C447.36 138.981 449.054 137.214 449.911 135.018C450.768 132.822 450.718 130.376 449.773 128.216C448.828 126.056 447.065 124.36 444.87 123.499V123.499Z" fill="white"/>
<path d="M474.95 182.138L437.39 167.478L410.58 157.018L396.26 151.428L358.96 136.868L346.84 132.138C344.579 131.255 342.069 131.251 339.806 132.126C337.542 133.002 335.688 134.693 334.61 136.868C334.49 137.118 334.37 137.378 334.27 137.648C333.806 138.835 333.581 140.102 333.607 141.376C333.633 142.65 333.91 143.907 334.421 145.074C334.933 146.241 335.67 147.296 336.589 148.179C337.509 149.061 338.593 149.754 339.78 150.218L342.88 151.428L392.6 170.838L437.39 188.318L467.89 200.228C469.012 200.666 470.206 200.89 471.41 200.888C473.675 200.892 475.87 200.104 477.615 198.66C479.359 197.216 480.545 195.208 480.965 192.982C481.385 190.757 481.014 188.455 479.915 186.474C478.817 184.494 477.06 182.96 474.95 182.138H474.95Z" fill="white"/>
<path d="M437.39 203.948L434.98 203.008L411.41 193.808L389.88 185.408L352.54 170.838L334.48 163.788C333.292 163.323 332.024 163.097 330.748 163.123C329.472 163.149 328.214 163.426 327.046 163.938C325.877 164.45 324.821 165.188 323.938 166.108C323.055 167.029 322.361 168.115 321.898 169.304C321.435 170.493 321.21 171.761 321.238 173.037C321.265 174.312 321.544 175.57 322.057 176.738C322.571 177.906 323.31 178.961 324.232 179.843C325.154 180.725 326.241 181.417 327.43 181.878L336.47 185.408L381.57 203.008L386.21 204.818L386.69 205.008H440.1L437.39 203.948Z" fill="white"/>
<path d="M346.16 204.819L341.52 203.009L322.13 195.439C320.775 194.909 319.319 194.69 317.868 194.799C316.417 194.908 315.01 195.342 313.749 196.069C312.489 196.796 311.409 197.797 310.588 198.999C309.768 200.2 309.228 201.571 309.01 203.009C308.914 203.607 308.877 204.214 308.9 204.819C308.898 204.883 308.901 204.946 308.91 205.009H346.65L346.16 204.819Z" fill="white"/>
<path d="M386.21 204.818L381.57 203.008H309.01C308.914 203.606 308.877 204.213 308.9 204.818H298.98L299.1 205.008H386.69L386.21 204.818ZM386.21 204.818H298.98L299.1 205.008H386.69L386.21 204.818ZM386.21 204.818H298.98L299.1 205.008H386.69L386.21 204.818ZM386.69 205.008L386.21 204.818H298.98L299.1 205.008H386.69ZM211.68 405.258C208.515 405.253 205.481 403.994 203.243 401.756C201.005 399.517 199.745 396.483 199.74 393.318V161.948C199.743 158.781 201.001 155.745 203.24 153.505C205.478 151.265 208.513 150.003 211.68 149.998H230.29V147.998H211.68C207.983 148.005 204.44 149.477 201.827 152.092C199.214 154.707 197.745 158.251 197.74 161.948V393.318C197.743 395.992 198.515 398.609 199.964 400.857C201.412 403.106 203.476 404.89 205.91 405.998H382.09C381.93 405.758 381.77 405.508 381.61 405.258H211.68ZM503.32 207.368C502.021 205.99 500.454 204.892 498.716 204.143C496.977 203.393 495.103 203.007 493.21 203.008H300.21L289.41 185.828L289.15 185.408L279.99 170.838L269.73 154.518C268.473 152.524 266.731 150.881 264.668 149.741C262.605 148.601 260.287 148.002 257.93 147.998H211.68C207.983 148.005 204.44 149.477 201.827 152.092C199.214 154.707 197.745 158.251 197.74 161.948V393.318C197.743 395.992 198.515 398.609 199.964 400.858C201.412 403.106 203.476 404.89 205.91 405.998C207.72 406.831 209.688 407.261 211.68 407.258H493.21C495.205 407.261 497.177 406.831 498.99 405.998C501.424 404.89 503.488 403.105 504.937 400.857C506.385 398.609 507.157 395.992 507.16 393.318V216.958C507.163 213.386 505.787 209.951 503.32 207.368V207.368ZM505.16 393.318C505.155 396.485 503.894 399.52 501.653 401.758C499.413 403.997 496.377 405.255 493.21 405.258H211.68C208.515 405.253 205.481 403.994 203.243 401.756C201.005 399.517 199.745 396.483 199.74 393.318V161.948C199.743 158.781 201.001 155.745 203.24 153.505C205.478 151.265 208.513 150.003 211.68 149.998H257.93C259.952 149.993 261.941 150.503 263.71 151.481C265.48 152.459 266.97 153.873 268.04 155.588L277.62 170.838L286.78 185.408L288.5 188.148L298.98 204.818L299.1 205.008H493.21C496.378 205.011 499.416 206.271 501.657 208.511C503.897 210.752 505.157 213.789 505.16 216.958V393.318ZM386.21 204.818H298.98L299.1 205.008H386.69L386.21 204.818ZM386.21 204.818H298.98L299.1 205.008H386.69L386.21 204.818ZM386.21 204.818H298.98L299.1 205.008H386.69L386.21 204.818ZM386.21 204.818L381.57 203.008H300.21L289.41 185.828L288.5 188.148L298.98 204.818L299.1 205.008H386.69L386.21 204.818Z" fill="#3F3D56"/>
<path d="M156.928 287.771L151.2 299.747L102.283 283.353L110.736 265.678L156.928 287.771Z" fill="#FFB8B8"/>
<path d="M143.155 307.775L154.734 283.568L169.275 290.523L151.274 328.16L150.162 327.628C146.6 325.925 143.861 322.876 142.547 319.153C141.233 315.43 141.452 311.337 143.155 307.775V307.775Z" fill="#2F2E41"/>
<path d="M168.459 394.715L155.192 394.267L154.633 342.623L170.186 343.541L168.459 394.715Z" fill="#FFB8B8"/>
<path d="M144.611 390.115L171.43 391.021L170.886 407.131L129.189 405.724L129.23 404.492C129.364 400.546 131.059 396.814 133.943 394.118C136.828 391.422 140.665 389.982 144.611 390.115Z" fill="#2F2E41"/>
<path d="M189.824 178.578C189.824 178.578 149.219 168.291 130.812 183.451L120.525 213.228L79.3789 271.699L138.933 307.431L149.761 280.361L123.774 267.368L155.175 240.297L149.761 383.227L170.334 386.475C170.334 386.475 215.812 209.979 189.824 178.578Z" fill="#2F2E41"/>
<path d="M128.221 187.855L128.716 186.975C133.933 177.7 133.087 162.597 131.46 151.561C130.097 142.317 130.137 126.026 130.412 113.987C130.48 109.924 131.929 106.004 134.521 102.874C137.113 99.7444 140.694 97.5901 144.673 96.7661C157.026 94.1956 172.191 93.651 180.131 93.5548L180.137 94.0961L180.131 93.5548C182.288 93.5461 184.363 94.3835 185.91 95.8871C187.457 97.3907 188.353 99.4408 188.406 101.598C188.648 114.562 188.573 138.202 185.356 150.886C180.581 169.711 188.047 182.504 188.123 182.631L188.574 183.384L128.221 187.855Z" fill="#00BFA6"/>
<path d="M107.334 239.773C108.656 239.14 109.823 238.225 110.753 237.092C111.682 235.959 112.353 234.636 112.716 233.216C113.079 231.796 113.127 230.314 112.855 228.874C112.584 227.434 112 226.071 111.145 224.881L134.06 126.062H116.735L96.5111 222.933C94.6071 224.502 93.345 226.716 92.9638 229.154C92.5826 231.591 93.1089 234.084 94.443 236.16C95.777 238.236 97.8262 239.75 100.202 240.416C102.578 241.082 105.116 240.853 107.334 239.773Z" fill="#FFB8B8"/>
<path d="M246.671 142.502L208.429 106.326L198.093 120.796L223.933 143.535L190.046 170.445C189.801 170.429 189.557 170.408 189.308 170.408C187.222 170.406 185.181 171.005 183.427 172.133C181.673 173.261 180.281 174.87 179.418 176.768C178.555 178.667 178.257 180.773 178.559 182.837C178.862 184.9 179.753 186.832 181.125 188.402C182.497 189.972 184.293 191.114 186.297 191.691C188.301 192.267 190.429 192.254 192.425 191.653C194.422 191.052 196.204 189.888 197.556 188.301C198.909 186.714 199.776 184.771 200.053 182.704L200.16 182.811L246.671 142.502Z" fill="#FFB8B8"/>
<path d="M142.241 98.0366C142.241 98.0366 118.36 94.1196 116.194 112.527C114.028 130.935 112.946 130.935 112.946 130.935C112.946 130.935 130.27 127.686 134.602 132.018C138.933 136.349 142.241 98.0366 142.241 98.0366Z" fill="#00BFA6"/>
<path d="M177.914 95.2041C177.914 95.2041 197.404 91.9557 206.066 100.618C214.729 109.28 219.06 111.446 219.06 111.446C219.06 111.446 199.57 122.274 207.149 132.019C207.149 132.019 186.576 122.274 183.328 125.522C180.079 128.771 177.914 95.2041 177.914 95.2041Z" fill="#00BFA6"/>
<path d="M160.819 32.3383C154.671 27.4283 153.055 17.9521 156.622 10.9391C160.189 3.9261 168.254 -0.299011 176.116 0.0165189C183.978 0.332049 191.385 4.84561 195.94 11.2613C202.338 20.2737 203.681 32.7997 212.188 39.8553C219.872 46.2281 230.879 46.0455 240.849 45.5386C244.21 45.3677 247.679 45.1696 250.695 43.6764C253.711 42.1832 256.175 39.034 255.786 35.6915C258.29 39.6564 256.837 45.2155 253.477 48.4869C250.117 51.7584 245.332 53.1289 240.674 53.6746C232.457 54.5384 224.156 53.2467 216.589 49.9268C209.023 46.607 202.452 41.3735 197.523 34.7417C194.054 29.9563 191.377 24.3838 186.617 20.8802C181.857 17.3765 173.92 17.1326 170.998 22.2702C169.553 24.8112 169.694 27.9984 168.365 30.6021C167.036 33.2057 162.72 34.6096 161.441 31.9814" fill="#2F2E41"/>
<path d="M159.879 84.5547C176.447 84.5547 189.879 71.1232 189.879 54.5547C189.879 37.9861 176.447 24.5547 159.879 24.5547C143.31 24.5547 129.879 37.9861 129.879 54.5547C129.879 71.1232 143.31 84.5547 159.879 84.5547Z" fill="#2F2E41"/>
<path d="M159.698 86.9033C173.262 86.9033 184.259 75.907 184.259 62.3423C184.259 48.7776 173.262 37.7812 159.698 37.7812C146.133 37.7812 135.137 48.7776 135.137 62.3423C135.137 75.907 146.133 86.9033 159.698 86.9033Z" fill="#FFB8B8"/>
<path d="M137.303 44.3035C140.641 45.0336 139.548 50.6332 142.186 52.8051C144.565 54.7644 147.992 52.7495 150.987 52.0201C154.768 51.0992 158.725 52.4482 162.215 54.1681C165.706 55.8879 169.072 58.0223 172.88 58.8235C176.688 59.6248 181.202 58.7217 183.337 55.4681C185.378 52.3572 184.627 48.162 183.03 44.8014C181.045 40.6229 177.929 37.0839 174.035 34.5854C170.142 32.0868 165.626 30.7286 161.001 30.6645C156.375 30.6004 151.824 31.833 147.862 34.2227C143.901 36.6124 140.688 40.0636 138.588 44.1855" fill="#2F2E41"/>
<path d="M716 406.998C715.999 407.263 715.894 407.517 715.706 407.704C715.519 407.892 715.265 407.997 715 407.998H1C0.734784 407.998 0.480429 407.893 0.292892 407.705C0.105356 407.518 0 407.263 0 406.998C0 406.733 0.105356 406.478 0.292892 406.291C0.480429 406.103 0.734784 405.998 1 405.998H715C715.265 405.999 715.519 406.105 715.706 406.292C715.894 406.479 715.999 406.733 716 406.998V406.998Z" fill="#3F3D56"/>
<rect x="200" y="205" width="305" height="200" rx="12" fill="white"/>
<path d="M200 183L238 150H257.929C262.023 150 265.834 152.087 268.039 155.536L303.5 211L272 231H200V183Z" fill="white"/>
<path d="M200.481 157.618C200.503 157.551 200.529 157.486 200.56 157.423L201.01 156.513L202.005 155.007V155.007C202.992 153.682 204.23 152.564 205.649 151.716L206.003 151.505V151.505C206.67 151.174 207.36 150.89 208.068 150.658L208.51 150.512V150.512C209.844 150.187 211.21 150.013 212.583 149.995L215.851 149.951L200.045 162.557V162.557C200.022 162.712 199.794 162.696 199.793 162.54L199.787 161.546L199.884 160.502C199.975 159.521 200.175 158.554 200.481 157.618V157.618Z" fill="white"/>
</g>
<defs>
<clipPath id="clip0">
<rect width="777.001" height="407.998" fill="white"/>
</clipPath>
</defs>
</svg>
